<svg t="1574238148698" class="icon" viewBox="0 0 1024 1024" version="1.1" xmlns="http://www.w3.org/2000/svg" p-id="1151" width="200" height="200"><path d="M512 65C265.146 65 65 265.146 65 512c0 246.839 200.146 447 447 447 246.869 0 447-200.161 447-447C959 265.146 758.869 65 512 65zM512 929.199C281.952 929.199 94.8 742.048 94.8 512S281.952 94.8 512 94.8 929.2 281.952 929.2 512 742.048 929.199 512 929.199z" p-id="1152" fill="#bfbfbf"></path><path d="M426.15 720.6 717.05 511.985 426.15 303.399 426.15 720.6zM455.951 361.443l209.967 150.542L455.951 662.557 455.951 361.443z" p-id="1153" fill="#bfbfbf"></path></svg>