<svg t="1575265603439" class="icon" viewBox="0 0 1024 1024" version="1.1" xmlns="http://www.w3.org/2000/svg" p-id="1901" width="200" height="200"><path d="M314.083556 463.701333l-1.080889-3.413333-0.853334-4.380444-0.625777-2.389334v-10.012444l1.080888-3.868445 1.080889-4.209777 1.365334-4.323556 1.934222-4.835556 2.56-5.006222 3.527111-5.12v-3.527111l0.341333-3.299555 0.568889-4.494223 1.536-5.006222 1.365334-5.461333 1.137777-2.503111 1.308445-2.332445 1.649778-2.616889 1.763555-1.934222v-12.458667l1.080889-6.428444 1.024-7.452444 1.877333-8.931556 2.616889-9.272889 1.934222-5.12 1.877334-5.518222 2.104889-5.233778 2.503111-5.518222 2.56-6.087111 2.844444-5.688889 3.413334-6.087111 4.096-6.087111 1.934222-3.413334 2.048-2.901333 4.437333-6.428444 4.551111-6.428445 5.290667-6.599111 5.518222-6.371556 6.087111-6.371555 6.257778-6.485333 7.68-6.997334 4.835556-4.266666 5.916444-4.608 5.973333-4.096 6.485334-3.868445 6.257777-3.413333 6.997334-2.901334 7.452444-3.584 7.395556-2.446222 7.395555-2.503111 8.021334-2.503111 7.964444-1.934222 8.419556-1.536 8.533333-1.422222 8.362667-1.137778 8.419555-1.137778 8.988445-0.455111H548.295111l8.874667 1.137778 8.817778 1.024 9.045333 0.967111 8.362667 1.991111 8.874666 1.877333 8.305778 2.218667 9.102222 2.389333 8.362667 2.958222 7.964444 3.413334 8.533334 3.527111 7.736889 3.925333 7.566222 4.323556 7.395555 4.721778 6.371556 4.437333 2.958222 2.56 3.072 1.820444 5.973333 5.006223 5.006223 4.835555 4.949333 5.063111 4.835556 5.518222 3.982222 5.404445 4.778666 5.518222 3.299556 5.973333 3.413333 5.290667 3.527111 6.144 2.958223 5.404445 5.006222 11.377777 2.446222 5.859556 1.934222 5.461333 1.877334 5.916445 1.706666 5.575111 1.251556 4.721778 1.536 5.688888 2.673778 10.012445 1.706666 8.760889 1.137778 8.533333 1.024 6.826667 1.536 10.410666 0.284445 1.649778 1.251555 1.877334 3.299556 5.404444 2.104889 3.640889 1.877333 3.811555 2.389333 4.096 2.104889 4.835556 1.365333 5.006222 1.536 5.461334 1.137778 5.632 0.512 2.787555 0.455111 3.413333v2.901334l-0.455111 2.958222v3.640889l-0.853333 3.584-1.592889 6.826667-1.763556 3.470222-1.365333 3.868444v0.967111l0.625778 1.251556 1.763555 2.844444 7.850667 11.548445 6.144 8.647111 2.958222 5.802667 3.982223 6.314666 3.470222 6.940445 3.982222 7.452444 3.982222 8.362667 4.551111 9.443555 2.503111 5.802667 2.275556 5.632 2.048 5.973333 1.991111 5.404445 1.479111 5.632 1.536 5.290666 1.934222 10.296889 1.536 10.581334 1.080889 9.386666V609.507556l-0.739555 4.664888-0.967111 8.021334-1.422223 7.338666-2.161777 6.542223-0.796445 2.673777-1.479111 3.242667-1.251555 2.275556-1.706667 2.730666-1.479111 1.706667-1.877334 2.275556-1.706666 1.820444-1.706667 1.592889-2.218667 0.910222-1.934222 0.967111-1.536 0.568889h-2.446222l-1.592889-0.568889-2.901333-1.479111-1.365334-0.910222-1.422222-1.080889-1.536-1.365333-1.592889-1.592889-2.56-2.844445-3.072-4.039111-2.446222-4.209778-2.389333-3.356444-2.275556-3.925333-3.413333-6.940445-3.697778-7.168-0.398222-0.284444h-0.682667l-1.479111 1.137778-0.910222 1.934222-1.422222 2.275555-2.56 7.054223-3.811556 9.955555-4.892444 11.946667-3.697778 6.030222-3.868445 6.257778-4.551111 6.997333-4.892444 6.826667-2.503111 3.128889-3.072 3.413333-6.940445 6.826667 0.568889 0.625777 0.967111 0.967112 3.527111 2.104888 14.449778 6.940445 6.314667 3.470222 6.030222 3.527111 5.916445 4.323556 5.347555 4.494222 2.56 1.991111 1.934222 2.332445 1.991111 2.730666 1.649778 2.901334 0.853334 2.446222 1.137777 2.958222 0.455111 2.503111 0.568889 2.958222-0.568889 1.991111v1.991112l-0.455111 2.104888-1.137777 1.877334-0.398223 1.479111-0.967111 1.820444-2.673778 3.584-2.389333 2.844445-1.877333 2.161778-1.592889 1.536-3.982222 2.958222-4.551111 2.56-4.778667 2.389333-5.12 2.275556-5.802667 2.275555-3.072 1.024-2.787555 0.739556-6.656 1.592889-6.940445 1.479111-6.940444 1.479111-7.509334 1.137778-7.793777 0.398222-7.964445 0.967111H646.257778l-8.988445-0.512-8.305777-0.796444-8.931556-1.194667-8.931556-0.967111-9.386666-1.308445-9.102222-2.275555-8.817778-1.706667-8.817778-2.56-9.045333-3.185778-8.817778-2.673777-4.664889-1.536-4.209778-1.536-2.616889-1.024-2.56-0.512h-7.395555l-8.533334-0.568889-4.266666-0.455111-5.575111-0.568889-3.527111 3.185777-4.892445 3.015112-6.542222 3.242666-7.338667 3.982222-4.380444 2.161778-4.664889 1.706667-10.24 4.152889-5.461333 1.422222-5.859556 1.536-8.078222 1.592889-5.006222 0.398222-5.347556 0.455111-5.575111 0.568889-6.485333 0.284445H407.438222l-14.961778-0.284445-14.563555-1.422222-7.395556-1.024-7.054222-1.137778-6.940444-0.967111-6.940445-1.422222-6.428444-2.048-6.428445-1.479111-5.745777-2.332445-5.461334-2.161778-5.12-2.446222-4.437333-2.673778-4.437333-3.242666-1.479112-1.536-1.991111-1.934222-1.479111-1.649778-1.365333-1.934222-1.194667-1.877334-0.967111-1.877333-1.422222-4.096-0.455111-2.048-0.682667-2.389333v-2.161778l0.682667-2.446222v-2.389334l0.455111-2.446222V728.860444l0.284444-2.616888 1.137778-2.958223 0.967111-2.958222 1.706667-3.527111 1.308444-1.365333 1.024-1.592889 2.787556-3.413334 2.161778-1.706666 2.048-1.194667 1.934222-1.536 3.072-1.024 2.389333-1.422222 3.072-1.592889 3.413334-1.024 3.413333-1.024 4.039111-0.853333 3.811556-0.568889 4.551111-0.568889 4.835555-0.398222 1.308445-0.398223h0.284444l0.568889-0.568888v-0.568889l-0.853333-1.194667-2.616889-1.251556-6.485334-5.575111-4.323555-3.527111-5.12-4.380444-5.006222-4.949334-5.347556-6.314666-6.030222-7.111111-2.275556-3.868445-3.015111-3.982222-2.616889-4.551111-2.275555-5.063111-3.185778-4.778667-2.104889-5.461333-2.389333-5.404445-2.446222-6.087111-1.820445-5.802666-1.706667-7.224889-0.455111-0.227556h-0.512l-0.284444-0.568889h-0.568889l-1.080889 0.568889-0.512 0.227556-0.739555 1.251555-0.170667 1.479111-0.568889 1.251556-0.910222 2.161778-3.015111 5.347555-1.536 3.185778-2.389334 2.730667-2.616889 3.413333-2.844444 3.697778-3.072 3.356444-3.527111 3.185778-3.299556 3.015111-3.640889 2.389333-3.982222 2.446223-3.811555 1.479111-4.551111 1.137778-4.437334 0.455111h-1.024l-1.024-0.455111-0.796444-1.706667-1.308445-0.910222-1.706666-4.152889-1.024-2.275556-1.137778-3.185778-0.967111-3.356444-0.512-3.299556-1.422222-7.566222-0.455112-4.380444v-14.620445l0.455112-10.808889 0.910222-5.575111 1.024-5.688889 0.967111-6.144 1.649778-5.688888 1.877333-6.656 1.934222-6.428445 2.56-6.542222 2.503111-6.371556 3.356445-6.371555 3.128889-6.940445 3.811555-6.542222 4.551111-6.997333 4.551111-6.314667 4.721778-6.997333 3.982222-4.892445 5.12-5.688889 5.404445-5.575111 2.503111-2.730666 3.015111-3.015111 4.437333-3.811556 4.551112-3.925333 7.338666-6.599111 5.575111-3.982223z" fill="#1296db" p-id="1902"></path><path d="M512 0a512 512 0 1 0 0 1024A512 512 0 0 0 512 0m0 994.417778A482.417778 482.417778 0 1 1 512 29.582222a482.417778 482.417778 0 0 1 0 964.835556" fill="#1296db" p-id="1903"></path></svg>